<?xml version="1.0" encoding="utf-8"?>
<!-- Generator: Adobe Illustrator 26.5.0, SVG Export Plug-In . SVG Version: 6.00 Build 0)  -->
<svg version="1.1" id="Vrstva_1" xmlns="http://www.w3.org/2000/svg" xmlns:xlink="http://www.w3.org/1999/xlink" x="0px" y="0px"
	 viewBox="0 0 283.5 283.5" style="enable-background:new 0 0 283.5 283.5;" xml:space="preserve">
<style type="text/css">
	.st0{fill:#E6E7E8;}
</style>
<path class="st0" d="M153.3,260.6c-7.2-0.1-14.5-0.5-21.7-1.5c-2.3-0.3-4.9-2.7-6.2-4.9c-10.4-17.2-20.6-34.4-30.6-51.8
	c-2.2-3.9-5.1-5.6-9.6-5.6c-17,0-33.9-0.3-50.9-0.5c-9-0.1-12.3-5.6-8-13.3c7.1-12.5,14.3-24.9,21.5-37.3c4.1-7,10.7-6.9,14.9,0.1
	c8.8,14.7,17.6,29.4,26.2,44.1c1.9,3.2,4.2,5.2,8.2,5.3c17.3,0.2,34.6,0.8,51.9,0.7c3,0,6.7-1.7,8.8-3.9c2.9-3.1,0.6-6.8-1.3-10
	c-11-18.6-22-37.2-32.9-55.9c-9.5-16.5-18.6-33.2-28.2-49.6c-2.8-4.8-3-8.7-0.1-13.4c8.5-14.2,16.7-28.7,25-43.1
	c4.7-8,11-8.1,15.7,0c15.9,27.2,31.8,54.3,47.5,81.6c13.3,23.1,26.5,46.2,39.8,69.3c14.2,24.7,28.5,49.4,42.8,74.1
	c5.2,9,2.1,14.4-8.2,14.4C241.9,259.5,172,260.8,153.3,260.6z"/>
</svg>
