<?xml version="1.0" encoding="utf-8"?>
<!-- Generator: Adobe Illustrator 26.5.0, SVG Export Plug-In . SVG Version: 6.00 Build 0)  -->
<svg version="1.1" id="Vrstva_1" xmlns="http://www.w3.org/2000/svg" xmlns:xlink="http://www.w3.org/1999/xlink" x="0px" y="0px"
	 viewBox="0 0 283.46 283.46" style="enable-background:new 0 0 283.46 283.46;" xml:space="preserve">
<style type="text/css">
	.st0{fill:#FF5C35;}
</style>
<path class="st0" d="M153.33,260.56c-7.24-0.07-14.53-0.47-21.69-1.49c-2.28-0.32-4.9-2.7-6.2-4.85
	c-10.38-17.16-20.55-34.45-30.6-51.81c-2.25-3.89-5.1-5.59-9.61-5.6c-16.95-0.03-33.91-0.32-50.86-0.51
	c-8.96-0.1-12.34-5.57-7.98-13.28c7.07-12.5,14.26-24.93,21.54-37.3c4.13-7.02,10.69-6.92,14.92,0.15
	c8.8,14.69,17.58,29.38,26.25,44.15c1.91,3.25,4.15,5.23,8.17,5.27c17.3,0.2,34.6,0.76,51.89,0.69c3-0.01,6.73-1.74,8.8-3.92
	c2.94-3.11,0.62-6.79-1.26-9.99c-10.97-18.62-22.04-37.19-32.86-55.9c-9.52-16.46-18.62-33.17-28.22-49.58
	c-2.78-4.76-2.99-8.66-0.13-13.43c8.53-14.25,16.69-28.72,25.05-43.07c4.68-8.03,11-8.05,15.72,0.03
	c15.89,27.17,31.76,54.35,47.51,81.59c13.33,23.06,26.47,46.23,39.75,69.31c14.22,24.72,28.52,49.4,42.78,74.11
	c5.18,8.98,2.13,14.36-8.16,14.38C241.88,259.51,172,260.75,153.33,260.56z"/>
</svg>
