<?xml version="1.0" encoding="utf-8"?>
<!-- Generator: Adobe Illustrator 26.5.0, SVG Export Plug-In . SVG Version: 6.00 Build 0)  -->
<svg version="1.1" id="Vrstva_1" xmlns="http://www.w3.org/2000/svg" xmlns:xlink="http://www.w3.org/1999/xlink" x="0px" y="0px"
	 viewBox="0 0 283.46 283.46" style="enable-background:new 0 0 283.46 283.46;" xml:space="preserve">
<style type="text/css">
	
	.st1{fill:#EC6144;}
</style>

<path class="st1" d="M136.92,148.04c2.14,0.07,4.28,0.19,6.42,0.2c1.92,0.01,2.27-0.67,1.32-2.31c-2.37-4.09-4.72-8.18-7.09-12.26
	c-0.39-0.68-0.48-1.29-0.04-2c0.99-1.63,1.91-3.3,2.88-4.94c0.7-1.18,1.3-1.21,1.96-0.06c5.29,9.18,10.57,18.36,15.84,27.55
	c0.62,1.09,0.3,1.69-0.94,1.7c-4.84,0.04-9.69,0.04-14.53,0.06c-0.93,0-1.51-0.43-1.98-1.25c-1.24-2.17-2.7-4.61-3.99-6.75
	C136.71,147.92,136.9,148.04,136.92,148.04z"/>
<path class="st1" d="M136.92,148.04c0,0.09,0-0.01,0,0.07c-2.36,0-4.39,0.03-6.65,0c-1.58-0.02-1.84-0.53-1.07-1.91
	c0.73-1.32,1.47-2.63,2.25-3.91c0.73-1.2,1.33-1.18,2.07,0.03C134.67,144.22,135.79,146.13,136.92,148.04z"/>
</svg>
