<svg id="visual" viewBox="0 0 1903 350" width="1903" height="350" xmlns="http://www.w3.org/2000/svg" xmlns:xlink="http://www.w3.org/1999/xlink" version="1.1"><g stroke-width="1" stroke-linejoin="bevel"><path d="M947.5 179L864.4 93.5L863.4 183Z" fill="#d0d1d2" stroke="#d0d1d2"></path><path d="M947.5 179L946.5 88.5L864.4 93.5Z" fill="#c9cbcc" stroke="#c9cbcc"></path><path d="M759.2 181L856.4 262.5L863.4 183Z" fill="#d6d8d9" stroke="#d6d8d9"></path><path d="M863.4 183L949.5 268.5L947.5 179Z" fill="#c3c4c6" stroke="#c3c4c6"></path><path d="M856.4 262.5L949.5 268.5L863.4 183Z" fill="#bcbec0" stroke="#bcbec0"></path><path d="M947.5 179L1047.7 167L946.5 88.5Z" fill="#d0d1d2" stroke="#d0d1d2"></path><path d="M946.5 88.5L864.4 0L864.4 93.5Z" fill="#c9cbcc" stroke="#c9cbcc"></path><path d="M864.4 93.5L759.2 181L863.4 183Z" fill="#e4e5e5" stroke="#e4e5e5"></path><path d="M1046.7 259.5L1047.7 167L947.5 179Z" fill="#c9cbcc" stroke="#c9cbcc"></path><path d="M946.5 88.5L955.5 0L864.4 0Z" fill="#c9cbcc" stroke="#c9cbcc"></path><path d="M1048.7 95.5L955.5 0L946.5 88.5Z" fill="#d0d1d2" stroke="#d0d1d2"></path><path d="M753.2 91.5L759.2 181L864.4 93.5Z" fill="#ffffff" stroke="#ffffff"></path><path d="M1047.7 167L1048.7 95.5L946.5 88.5Z" fill="#eaebec" stroke="#eaebec"></path><path d="M760.2 0L753.2 91.5L864.4 93.5Z" fill="#f8f8f9" stroke="#f8f8f9"></path><path d="M949.5 268.5L1046.7 259.5L947.5 179Z" fill="#f1f2f2" stroke="#f1f2f2"></path><path d="M1047.7 167L1133.8 79.5L1048.7 95.5Z" fill="#ffffff" stroke="#ffffff"></path><path d="M759.2 181L760.2 261.5L856.4 262.5Z" fill="#f1f2f2" stroke="#f1f2f2"></path><path d="M856.4 262.5L859.4 350L949.5 268.5Z" fill="#e4e5e5" stroke="#e4e5e5"></path><path d="M662.1 179L760.2 261.5L759.2 181Z" fill="#bcbec0" stroke="#bcbec0"></path><path d="M864.4 0L760.2 0L864.4 93.5Z" fill="#f8f8f9" stroke="#f8f8f9"></path><path d="M1048.7 95.5L1046.7 0L955.5 0Z" fill="#dddedf" stroke="#dddedf"></path><path d="M760.2 261.5L859.4 350L856.4 262.5Z" fill="#ffffff" stroke="#ffffff"></path><path d="M949.5 268.5L1039.7 350L1046.7 259.5Z" fill="#dddedf" stroke="#dddedf"></path><path d="M859.4 350L959.5 350L949.5 268.5Z" fill="#e4e5e5" stroke="#e4e5e5"></path><path d="M1149.8 181L1133.8 79.5L1047.7 167Z" fill="#d0d1d2" stroke="#d0d1d2"></path><path d="M1048.7 95.5L1133.8 79.5L1046.7 0Z" fill="#c9cbcc" stroke="#c9cbcc"></path><path d="M657.1 84.5L662.1 179L753.2 91.5Z" fill="#e4e5e5" stroke="#e4e5e5"></path><path d="M753.2 91.5L662.1 179L759.2 181Z" fill="#e4e5e5" stroke="#e4e5e5"></path><path d="M760.2 261.5L756.2 350L859.4 350Z" fill="#f1f2f2" stroke="#f1f2f2"></path><path d="M1149.8 256.5L1149.8 181L1046.7 259.5Z" fill="#d0d1d2" stroke="#d0d1d2"></path><path d="M1046.7 259.5L1149.8 181L1047.7 167Z" fill="#f1f2f2" stroke="#f1f2f2"></path><path d="M959.5 350L1039.7 350L949.5 268.5Z" fill="#c3c4c6" stroke="#c3c4c6"></path><path d="M662.1 0L657.1 84.5L753.2 91.5Z" fill="#c9cbcc" stroke="#c9cbcc"></path><path d="M666.1 270.5L756.2 350L760.2 261.5Z" fill="#eaebec" stroke="#eaebec"></path><path d="M1236 81.5L1135.8 0L1133.8 79.5Z" fill="#eaebec" stroke="#eaebec"></path><path d="M1133.8 79.5L1135.8 0L1046.7 0Z" fill="#f1f2f2" stroke="#f1f2f2"></path><path d="M564.9 255.5L666.1 270.5L662.1 179Z" fill="#d0d1d2" stroke="#d0d1d2"></path><path d="M662.1 179L666.1 270.5L760.2 261.5Z" fill="#d6d8d9" stroke="#d6d8d9"></path><path d="M1134.8 350L1149.8 256.5L1046.7 259.5Z" fill="#bcbec0" stroke="#bcbec0"></path><path d="M760.2 0L662.1 0L753.2 91.5Z" fill="#dddedf" stroke="#dddedf"></path><path d="M666.1 270.5L674.1 350L756.2 350Z" fill="#e4e5e5" stroke="#e4e5e5"></path><path d="M1039.7 350L1134.8 350L1046.7 259.5Z" fill="#f8f8f9" stroke="#f8f8f9"></path><path d="M657.1 84.5L578.9 178L662.1 179Z" fill="#c3c4c6" stroke="#c3c4c6"></path><path d="M666.1 270.5L576.9 350L674.1 350Z" fill="#eaebec" stroke="#eaebec"></path><path d="M563.9 95.5L578.9 178L657.1 84.5Z" fill="#bcbec0" stroke="#bcbec0"></path><path d="M1244 166L1236 81.5L1149.8 181Z" fill="#dddedf" stroke="#dddedf"></path><path d="M1149.8 181L1236 81.5L1133.8 79.5Z" fill="#ffffff" stroke="#ffffff"></path><path d="M1244 166L1149.8 181L1228 256.5Z" fill="#dddedf" stroke="#dddedf"></path><path d="M1228 256.5L1149.8 181L1149.8 256.5Z" fill="#c9cbcc" stroke="#c9cbcc"></path><path d="M564.9 0L563.9 95.5L657.1 84.5Z" fill="#dddedf" stroke="#dddedf"></path><path d="M1242 350L1228 256.5L1149.8 256.5Z" fill="#e4e5e5" stroke="#e4e5e5"></path><path d="M476.8 174L564.9 255.5L578.9 178Z" fill="#c9cbcc" stroke="#c9cbcc"></path><path d="M578.9 178L564.9 255.5L662.1 179Z" fill="#c3c4c6" stroke="#c3c4c6"></path><path d="M1236 81.5L1238 0L1135.8 0Z" fill="#dddedf" stroke="#dddedf"></path><path d="M1328.1 0L1238 0L1236 81.5Z" fill="#d6d8d9" stroke="#d6d8d9"></path><path d="M662.1 0L564.9 0L657.1 84.5Z" fill="#f1f2f2" stroke="#f1f2f2"></path><path d="M564.9 255.5L576.9 350L666.1 270.5Z" fill="#f8f8f9" stroke="#f8f8f9"></path><path d="M1134.8 350L1242 350L1149.8 256.5Z" fill="#f1f2f2" stroke="#f1f2f2"></path><path d="M1324.1 263.5L1326.1 170L1244 166Z" fill="#dddedf" stroke="#dddedf"></path><path d="M1324.1 263.5L1244 166L1228 256.5Z" fill="#dddedf" stroke="#dddedf"></path><path d="M1244 166L1331.1 95.5L1236 81.5Z" fill="#eaebec" stroke="#eaebec"></path><path d="M564.9 0L478.8 88.5L563.9 95.5Z" fill="#f8f8f9" stroke="#f8f8f9"></path><path d="M563.9 95.5L476.8 174L578.9 178Z" fill="#c3c4c6" stroke="#c3c4c6"></path><path d="M564.9 255.5L476.8 265.5L576.9 350Z" fill="#bcbec0" stroke="#bcbec0"></path><path d="M478.8 88.5L476.8 174L563.9 95.5Z" fill="#c9cbcc" stroke="#c9cbcc"></path><path d="M1326.1 170L1331.1 95.5L1244 166Z" fill="#dddedf" stroke="#dddedf"></path><path d="M1242 350L1324.1 263.5L1228 256.5Z" fill="#d6d8d9" stroke="#d6d8d9"></path><path d="M1326.1 170L1423.3 182L1331.1 95.5Z" fill="#ffffff" stroke="#ffffff"></path><path d="M476.8 174L476.8 265.5L564.9 255.5Z" fill="#f1f2f2" stroke="#f1f2f2"></path><path d="M1331.1 95.5L1328.1 0L1236 81.5Z" fill="#c3c4c6" stroke="#c3c4c6"></path><path d="M564.9 0L477.8 0L478.8 88.5Z" fill="#ffffff" stroke="#ffffff"></path><path d="M478.8 88.5L387.6 174L476.8 174Z" fill="#dddedf" stroke="#dddedf"></path><path d="M1242 350L1324.1 350L1324.1 263.5Z" fill="#d6d8d9" stroke="#d6d8d9"></path><path d="M1324.1 263.5L1423.3 182L1326.1 170Z" fill="#e4e5e5" stroke="#e4e5e5"></path><path d="M387.6 174L476.8 265.5L476.8 174Z" fill="#e4e5e5" stroke="#e4e5e5"></path><path d="M387.6 350L467.8 350L476.8 265.5Z" fill="#dddedf" stroke="#dddedf"></path><path d="M476.8 265.5L467.8 350L576.9 350Z" fill="#eaebec" stroke="#eaebec"></path><path d="M388.6 83.5L387.6 174L478.8 88.5Z" fill="#ffffff" stroke="#ffffff"></path><path d="M477.8 0L388.6 83.5L478.8 88.5Z" fill="#c3c4c6" stroke="#c3c4c6"></path><path d="M1431.3 255.5L1423.3 182L1324.1 263.5Z" fill="#dddedf" stroke="#dddedf"></path><path d="M1331.1 95.5L1435.3 79.5L1328.1 0Z" fill="#eaebec" stroke="#eaebec"></path><path d="M1423.3 182L1435.3 79.5L1331.1 95.5Z" fill="#c3c4c6" stroke="#c3c4c6"></path><path d="M477.8 0L385.6 0L388.6 83.5Z" fill="#f1f2f2" stroke="#f1f2f2"></path><path d="M279.5 177L372.6 255.5L387.6 174Z" fill="#f8f8f9" stroke="#f8f8f9"></path><path d="M1432.3 350L1431.3 255.5L1324.1 263.5Z" fill="#c3c4c6" stroke="#c3c4c6"></path><path d="M1423.3 182L1521.4 180L1435.3 79.5Z" fill="#ffffff" stroke="#ffffff"></path><path d="M286.5 88.5L387.6 174L388.6 83.5Z" fill="#c9cbcc" stroke="#c9cbcc"></path><path d="M387.6 174L372.6 255.5L476.8 265.5Z" fill="#dddedf" stroke="#dddedf"></path><path d="M1435.3 79.5L1435.3 0L1328.1 0Z" fill="#c9cbcc" stroke="#c9cbcc"></path><path d="M372.6 255.5L387.6 350L476.8 265.5Z" fill="#c3c4c6" stroke="#c3c4c6"></path><path d="M1324.1 350L1432.3 350L1324.1 263.5Z" fill="#c3c4c6" stroke="#c3c4c6"></path><path d="M1431.3 255.5L1521.4 180L1423.3 182Z" fill="#eaebec" stroke="#eaebec"></path><path d="M285.5 0L286.5 88.5L388.6 83.5Z" fill="#bcbec0" stroke="#bcbec0"></path><path d="M372.6 255.5L286.5 350L387.6 350Z" fill="#c3c4c6" stroke="#c3c4c6"></path><path d="M1521.4 262.5L1521.4 180L1431.3 255.5Z" fill="#d0d1d2" stroke="#d0d1d2"></path><path d="M1435.3 79.5L1516.4 0L1435.3 0Z" fill="#e4e5e5" stroke="#e4e5e5"></path><path d="M1521.4 180L1524.4 93.5L1435.3 79.5Z" fill="#bcbec0" stroke="#bcbec0"></path><path d="M286.5 88.5L279.5 177L387.6 174Z" fill="#ffffff" stroke="#ffffff"></path><path d="M1524.4 93.5L1516.4 0L1435.3 79.5Z" fill="#f1f2f2" stroke="#f1f2f2"></path><path d="M1521.4 180L1610.6 178L1524.4 93.5Z" fill="#c9cbcc" stroke="#c9cbcc"></path><path d="M1432.3 350L1521.4 262.5L1431.3 255.5Z" fill="#e4e5e5" stroke="#e4e5e5"></path><path d="M385.6 0L285.5 0L388.6 83.5Z" fill="#f8f8f9" stroke="#f8f8f9"></path><path d="M193.3 85.5L198.3 183L279.5 177Z" fill="#dddedf" stroke="#dddedf"></path><path d="M279.5 177L277.5 257.5L372.6 255.5Z" fill="#f8f8f9" stroke="#f8f8f9"></path><path d="M277.5 257.5L286.5 350L372.6 255.5Z" fill="#dddedf" stroke="#dddedf"></path><path d="M1432.3 350L1520.4 350L1521.4 262.5Z" fill="#c3c4c6" stroke="#c3c4c6"></path><path d="M1521.4 262.5L1610.6 178L1521.4 180Z" fill="#d6d8d9" stroke="#d6d8d9"></path><path d="M279.5 177L198.3 183L277.5 257.5Z" fill="#c3c4c6" stroke="#c3c4c6"></path><path d="M277.5 257.5L191.3 350L286.5 350Z" fill="#bcbec0" stroke="#bcbec0"></path><path d="M193.3 85.5L279.5 177L286.5 88.5Z" fill="#bcbec0" stroke="#bcbec0"></path><path d="M1621.6 268.5L1610.6 178L1521.4 262.5Z" fill="#c3c4c6" stroke="#c3c4c6"></path><path d="M1524.4 93.5L1613.6 0L1516.4 0Z" fill="#c3c4c6" stroke="#c3c4c6"></path><path d="M285.5 0L193.3 85.5L286.5 88.5Z" fill="#c9cbcc" stroke="#c9cbcc"></path><path d="M1610.6 178L1623.6 87.5L1524.4 93.5Z" fill="#c9cbcc" stroke="#c9cbcc"></path><path d="M285.5 0L194.3 0L193.3 85.5Z" fill="#c9cbcc" stroke="#c9cbcc"></path><path d="M1623.6 87.5L1613.6 0L1524.4 93.5Z" fill="#c3c4c6" stroke="#c3c4c6"></path><path d="M1610.6 178L1703.7 171L1623.6 87.5Z" fill="#f8f8f9" stroke="#f8f8f9"></path><path d="M1608.6 350L1621.6 268.5L1521.4 262.5Z" fill="#eaebec" stroke="#eaebec"></path><path d="M90.2 179L183.3 265.5L198.3 183Z" fill="#f8f8f9" stroke="#f8f8f9"></path><path d="M198.3 183L183.3 265.5L277.5 257.5Z" fill="#d6d8d9" stroke="#d6d8d9"></path><path d="M90.2 179L198.3 183L193.3 85.5Z" fill="#bcbec0" stroke="#bcbec0"></path><path d="M1520.4 350L1608.6 350L1521.4 262.5Z" fill="#f1f2f2" stroke="#f1f2f2"></path><path d="M183.3 265.5L191.3 350L277.5 257.5Z" fill="#ffffff" stroke="#ffffff"></path><path d="M1711.7 267.5L1703.7 171L1621.6 268.5Z" fill="#e4e5e5" stroke="#e4e5e5"></path><path d="M1621.6 268.5L1703.7 171L1610.6 178Z" fill="#d0d1d2" stroke="#d0d1d2"></path><path d="M1623.6 87.5L1718.7 0L1613.6 0Z" fill="#d0d1d2" stroke="#d0d1d2"></path><path d="M1703.7 171L1708.7 94.5L1623.6 87.5Z" fill="#f1f2f2" stroke="#f1f2f2"></path><path d="M98.2 0L92.2 91.5L193.3 85.5Z" fill="#d0d1d2" stroke="#d0d1d2"></path><path d="M183.3 265.5L100.2 350L191.3 350Z" fill="#d6d8d9" stroke="#d6d8d9"></path><path d="M92.2 91.5L90.2 179L193.3 85.5Z" fill="#c3c4c6" stroke="#c3c4c6"></path><path d="M194.3 0L98.2 0L193.3 85.5Z" fill="#ffffff" stroke="#ffffff"></path><path d="M1717.7 350L1711.7 267.5L1621.6 268.5Z" fill="#c3c4c6" stroke="#c3c4c6"></path><path d="M1811.9 167L1799.9 86.5L1708.7 94.5Z" fill="#bcbec0" stroke="#bcbec0"></path><path d="M90.2 179L91.2 254.5L183.3 265.5Z" fill="#f1f2f2" stroke="#f1f2f2"></path><path d="M1799.9 86.5L1718.7 0L1708.7 94.5Z" fill="#bcbec0" stroke="#bcbec0"></path><path d="M1708.7 94.5L1718.7 0L1623.6 87.5Z" fill="#eaebec" stroke="#eaebec"></path><path d="M91.2 254.5L100.2 350L183.3 265.5Z" fill="#c9cbcc" stroke="#c9cbcc"></path><path d="M1608.6 350L1717.7 350L1621.6 268.5Z" fill="#d0d1d2" stroke="#d0d1d2"></path><path d="M1811.9 167L1708.7 94.5L1703.7 171Z" fill="#bcbec0" stroke="#bcbec0"></path><path d="M1811.9 167L1703.7 171L1813.9 259.5Z" fill="#d0d1d2" stroke="#d0d1d2"></path><path d="M90.2 179L0 174L91.2 254.5Z" fill="#c9cbcc" stroke="#c9cbcc"></path><path d="M91.2 254.5L0 268.5L100.2 350Z" fill="#f8f8f9" stroke="#f8f8f9"></path><path d="M92.2 91.5L0 174L90.2 179Z" fill="#bcbec0" stroke="#bcbec0"></path><path d="M0 94.5L0 174L92.2 91.5Z" fill="#d0d1d2" stroke="#d0d1d2"></path><path d="M0 0L0 94.5L92.2 91.5Z" fill="#bcbec0" stroke="#bcbec0"></path><path d="M1813.9 259.5L1703.7 171L1711.7 267.5Z" fill="#f1f2f2" stroke="#f1f2f2"></path><path d="M0 174L0 268.5L91.2 254.5Z" fill="#c3c4c6" stroke="#c3c4c6"></path><path d="M1903 0L1805.9 0L1799.9 86.5Z" fill="#f8f8f9" stroke="#f8f8f9"></path><path d="M1799.9 86.5L1805.9 0L1718.7 0Z" fill="#e4e5e5" stroke="#e4e5e5"></path><path d="M98.2 0L0 0L92.2 91.5Z" fill="#c9cbcc" stroke="#c9cbcc"></path><path d="M1806.9 350L1813.9 259.5L1711.7 267.5Z" fill="#dddedf" stroke="#dddedf"></path><path d="M0 268.5L0 350L100.2 350Z" fill="#ffffff" stroke="#ffffff"></path><path d="M1717.7 350L1806.9 350L1711.7 267.5Z" fill="#d6d8d9" stroke="#d6d8d9"></path><path d="M1903 255.5L1903 181L1813.9 259.5Z" fill="#dddedf" stroke="#dddedf"></path><path d="M1813.9 259.5L1903 181L1811.9 167Z" fill="#d0d1d2" stroke="#d0d1d2"></path><path d="M1811.9 167L1903 94.5L1799.9 86.5Z" fill="#d6d8d9" stroke="#d6d8d9"></path><path d="M1903 181L1903 94.5L1811.9 167Z" fill="#ffffff" stroke="#ffffff"></path><path d="M1903 350L1903 255.5L1813.9 259.5Z" fill="#d0d1d2" stroke="#d0d1d2"></path><path d="M1903 94.5L1903 0L1799.9 86.5Z" fill="#eaebec" stroke="#eaebec"></path><path d="M1806.9 350L1903 350L1813.9 259.5Z" fill="#d6d8d9" stroke="#d6d8d9"></path></g></svg>