<svg id="visual" viewBox="0 0 420 140" width="420" height="140" xmlns="http://www.w3.org/2000/svg" xmlns:xlink="http://www.w3.org/1999/xlink" version="1.1"><rect x="0" y="0" width="420" height="140" fill="#fff"></rect><path d="M0 58L11.7 62.3C23.3 66.7 46.7 75.3 70 81.5C93.3 87.7 116.7 91.3 140 77.3C163.3 63.3 186.7 31.7 210 19.8C233.3 8 256.7 16 280 26.5C303.3 37 326.7 50 350 46.5C373.3 43 396.7 23 408.3 13L420 3L420 0L408.3 0C396.7 0 373.3 0 350 0C326.7 0 303.3 0 280 0C256.7 0 233.3 0 210 0C186.7 0 163.3 0 140 0C116.7 0 93.3 0 70 0C46.7 0 23.3 0 11.7 0L0 0Z" fill="#db6c0c" stroke-linecap="round" stroke-linejoin="miter"></path></svg>