<?xml version="1.0" encoding="utf-8"?>
<!-- Generator: Adobe Illustrator 26.5.0, SVG Export Plug-In . SVG Version: 6.00 Build 0)  -->
<svg version="1.1" id="visual" xmlns="http://www.w3.org/2000/svg" xmlns:xlink="http://www.w3.org/1999/xlink" x="0px" y="0px"
	 viewBox="0 0 960 540" style="enable-background:new 0 0 960 540;" xml:space="preserve">
<style type="text/css">
	.st0{fill:#545454;}
	.st1{fill:#1B1D43;}
	.st2{fill:none;stroke:#FF5C35;stroke-width:2;}
	.st3{fill:#FFFFFF;}
</style>
<rect class="st0" width="960" height="540"/>
<g>
	<polyline class="st1" points="201.8,398.4 0.3,398.4 0.3,3 957.9,3 957.9,398.4 404.9,398.4 	"/>
	<line class="st1" x1="404.9" y1="398.4" x2="201.8" y2="398.4"/>
	<path class="st2" d="M230.8,399.2L114.5,284.9l205.7-202l205.7,202L410.2,398.4"/>
	<path class="st2" d="M520.5,398.4L404.9,284.9L692,3"/>
	<path class="st2" d="M957.9,336.4l-63.1,62"/>
	<path class="st2" d="M723.3,3l233.6,229.4"/>
	<path class="st2" d="M292.3,0l77.4,76.1L263,180.9L156.3,76.1L230.8,3"/>
	<path class="st2" d="M-31.7,3"/>
	<path class="st2" d="M292.3,0L128.7,160.6L0.3,34.4"/>
	<path class="st2" d="M199.9,403"/>
	<path class="st2" d="M0.3,195.1L114.5,82.9l205.7,202L203.8,399.2"/>
	<path class="st2" d="M25.1,399.2L0.3,374.8"/>
	<path class="st2" d="M956.8,181.9L844.3,71.3L913.8,3"/>
	<path class="st2" d="M593,3l81.4,79.9l-205.7,202L263,82.9L344.4,3"/>
	<path class="st2" d="M728,332.2c-5.1,0-10.3-0.3-15.4-1c-1.6-0.2-3.5-1.9-4.4-3.4c-7.4-11.9-14.6-24-21.7-36.1
		c-1.6-2.7-3.6-3.9-6.8-3.9c-12,0-24-0.2-36-0.4c-6.3-0.1-8.7-3.9-5.7-9.2c5-8.7,10.1-17.4,15.3-26c2.9-4.9,7.6-4.8,10.6,0.1
		c6.2,10.2,12.5,20.5,18.6,30.7c1.4,2.3,2.9,3.6,5.8,3.7c12.3,0.1,24.5,0.5,36.8,0.5c2.1,0,4.8-1.2,6.2-2.7c2.1-2.2,0.4-4.7-0.9-7
		c-7.8-13-15.6-25.9-23.3-38.9c-6.7-11.5-13.2-23.1-20-34.5c-2-3.3-2.1-6-0.1-9.3c6-9.9,11.8-20,17.8-30c3.3-5.6,7.8-5.6,11.1,0
		c11.3,18.9,22.5,37.8,33.7,56.8c9.4,16.1,18.8,32.2,28.2,48.2c10.1,17.2,20.2,34.4,30.3,51.6c3.7,6.3,1.5,10-5.8,10
		C790.8,331.5,741.3,332.3,728,332.2z"/>
</g>
<path class="st3" d="M-0.9,397l53.3-8.7c53.4-8.6,160-26,266.7-21.3s213.3,31.3,320,18.8s213.3-64.1,266.7-90l53.3-25.8v276h-53.3
	c-53.4,0-160,0-266.7,0s-213.3,0-320,0s-213.3,0-266.7,0H-0.9V397z"/>
</svg>
